<svg width="39" height="39" viewBox="0 0 39 39" fill="none" xmlns="http://www.w3.org/2000/svg">
<path d="M21.9012 19.3027L13.5786 17.8365V28.6704C13.5787 28.7881 13.602 28.9046 13.6471 29.0133C13.6923 29.122 13.7584 29.2207 13.8416 29.3039C13.9249 29.387 14.0238 29.453 14.1326 29.4979C14.2413 29.5429 14.3579 29.566 14.4756 29.5659H28.8365C28.9543 29.5662 29.071 29.5432 29.18 29.4984C29.2889 29.4535 29.388 29.3876 29.4714 29.3044C29.5549 29.2212 29.6211 29.1224 29.6663 29.0136C29.7116 28.9048 29.7349 28.7882 29.735 28.6704V24.6786L21.9012 19.3027Z" fill="#185C37"/>
<path d="M21.9012 10.017H14.4756C14.3579 10.0169 14.2413 10.04 14.1326 10.0849C14.0238 10.1299 13.9249 10.1958 13.8416 10.2789C13.7584 10.3621 13.6923 10.4608 13.6471 10.5695C13.602 10.6782 13.5787 10.7948 13.5786 10.9125V14.9042L21.9012 19.7914L26.3079 21.2576L29.735 19.7914V14.9042L21.9012 10.017Z" fill="#21A366"/>
<path d="M13.5786 14.9042H21.9012V19.7914H13.5786V14.9042Z" fill="#107C41"/>
<path opacity="0.1" d="M19.535 13.9268H13.5786V26.1448H19.535C19.7723 26.1436 19.9997 26.049 20.1677 25.8813C20.3357 25.7137 20.431 25.4866 20.4327 25.2493V14.8222C20.431 14.5849 20.3357 14.3578 20.1677 14.1902C19.9997 14.0226 19.7723 13.9279 19.535 13.9268Z" fill="black"/>
<path opacity="0.2" d="M19.0455 14.4155H13.5786V26.6335H19.0455C19.2829 26.6323 19.5102 26.5377 19.6782 26.37C19.8463 26.2024 19.9415 25.9753 19.9433 25.738V15.311C19.9415 15.0736 19.8463 14.8465 19.6782 14.6789C19.5102 14.5113 19.2829 14.4166 19.0455 14.4155Z" fill="black"/>
<path opacity="0.2" d="M19.0455 14.4155H13.5786V25.6561H19.0455C19.2829 25.6549 19.5102 25.5602 19.6782 25.3926C19.8463 25.225 19.9415 24.9979 19.9433 24.7606V15.311C19.9415 15.0736 19.8463 14.8465 19.6782 14.6789C19.5102 14.5113 19.2829 14.4166 19.0455 14.4155Z" fill="black"/>
<path opacity="0.2" d="M18.5561 14.4155H13.5786V25.6561H18.5561C18.7934 25.6549 19.0207 25.5602 19.1888 25.3926C19.3568 25.225 19.452 24.9979 19.4538 24.7606V15.311C19.452 15.0736 19.3568 14.8465 19.1888 14.6789C19.0207 14.5113 18.7934 14.4166 18.5561 14.4155Z" fill="black"/>
<path d="M9.58036 14.4155H18.5563C18.7941 14.4153 19.0222 14.5095 19.1905 14.6774C19.3588 14.8453 19.4536 15.0732 19.454 15.311V24.2718C19.4536 24.5096 19.3588 24.7375 19.1905 24.9054C19.0222 25.0733 18.7941 25.1675 18.5563 25.1673H9.58036C9.4626 25.1675 9.34596 25.1445 9.2371 25.0996C9.12823 25.0547 9.02929 24.9888 8.94592 24.9056C8.86254 24.8225 8.79638 24.7237 8.7512 24.6149C8.70602 24.5062 8.68272 24.3896 8.68262 24.2718V15.311C8.68272 15.1932 8.70602 15.0766 8.7512 14.9679C8.79638 14.8591 8.86254 14.7603 8.94592 14.6772C9.02929 14.594 9.12823 14.5281 9.2371 14.4832C9.34596 14.4383 9.4626 14.4153 9.58036 14.4155Z" fill="url(#paint0_linear_635_42)"/>
<path d="M11.4644 22.7034L13.3523 19.7832L11.623 16.8794H13.0117L13.9553 18.7388C14.0425 18.9147 14.1057 19.0456 14.1343 19.1328H14.1471C14.2087 18.9914 14.2741 18.8553 14.3425 18.7222L15.3516 16.8824H16.6298L14.8561 19.7696L16.6749 22.7057H15.3147L14.2245 20.6674C14.1739 20.5797 14.1309 20.4879 14.0959 20.3929H14.0779C14.0461 20.4855 14.0037 20.574 13.9516 20.6568L12.829 22.7034H11.4644Z" fill="white"/>
<path d="M28.8374 10.017H21.9014V14.9042H29.7352V10.9125C29.7351 10.7947 29.7118 10.6781 29.6666 10.5694C29.6214 10.4606 29.5553 10.3618 29.4719 10.2787C29.3885 10.1955 29.2896 10.1296 29.1807 10.0847C29.0719 10.0398 28.9552 10.0168 28.8374 10.017Z" fill="#33C481"/>
<path d="M21.9014 19.7914H29.7352V24.6786H21.9014V19.7914Z" fill="#107C41"/>
<circle cx="19.5967" cy="19.4033" r="18.9033" stroke="#9C9B9B"/>
<defs>
<linearGradient id="paint0_linear_635_42" x1="10.5578" y1="13.7117" x2="17.5788" y2="25.8711" gradientUnits="userSpaceOnUse">
<stop stop-color="#18884F"/>
<stop offset="0.5" stop-color="#117E43"/>
<stop offset="1" stop-color="#0B6631"/>
</linearGradient>
</defs>
</svg>
